<?xml version="1.0" encoding="UTF-8"?>
<svg id="Layer_1" xmlns="http://www.w3.org/2000/svg" version="1.1" viewBox="0 0 358.93 213.12">
  <!-- Generator: Adobe Illustrator 29.6.1, SVG Export Plug-In . SVG Version: 2.1.1 Build 9)  -->
  <defs>
    <style>
      .st0 {
        fill: #2c882b;
      }
    </style>
  </defs>
  <rect class="st0" x="35.47" y="149.28" width="288" height="1.5"/>
  <path class="st0" d="M228.95,163.36c-.1-2.12-.8-3.78-2.89-3.78-2.93,0-3.36,3.44-3.36,7.95s.43,7.95,3.36,7.95,3.18-3.66,3.18-6.27h-3.54v-2.17h5.78v10.23h-1.89v-2.13c-.66,1.42-2.02,2.51-3.81,2.51-4.81,0-5.62-4.97-5.62-10.12,0-4.82.82-10.11,5.9-10.11s5.4,4.84,5.42,5.83l-2.54.11h0ZM197.64,157.8h9.51v2.33h-7.07v5.81h6.67v2.33h-6.67v6.68h7.37v2.33h-9.81v-19.48h0ZM175.63,157.8h2.44v17.15h7.3v2.33h-9.74v-19.48ZM153.69,157.8h2.44v17.15h7.3v2.33h-9.74v-19.48ZM137.6,167.53c0-4.39-.38-8.17-3.59-8.17s-3.58,3.78-3.58,8.17.38,8.18,3.58,8.18,3.59-3.78,3.59-8.18M139.91,167.53c0,4.83-.82,10.12-5.9,10.12s-5.9-5.29-5.9-10.12.82-10.11,5.9-10.11,5.9,5.29,5.9,10.11M115.34,170.44c-.21,3.77-1.55,7.21-5.58,7.21-5.23,0-5.89-5.3-5.89-10.12s.82-10.11,5.89-10.11c3.76,0,5.32,2.28,5.42,6.1l-2.54.11c-.05-2.29-.7-4.04-2.89-4.04-2.93,0-3.36,3.44-3.36,7.95s.43,7.95,3.36,7.95c2.57,0,2.96-2.56,3.03-4.94l2.55-.11h.01ZM245.26,157.8h9.51v2.33h-7.07v5.81h6.67v2.33h-6.67v6.68h7.37v2.33h-9.81v-19.48h0Z"/>
  <path class="st0" d="M137.96,124.66c-1.94.59-6.21.13-6.57.13-.44,0-.32-.83-.32-.83.66-3.03.91-7.11,4.65-7.71,1.01-.12,1.87.03,2.53.77,1.3,1.45,1.68,3.74,1.27,5.7-.2.99-.78,1.63-1.57,1.94M203.78,121.77c4.75,0,6.78-.67,7.71-2.42,1.21-2.28,1.35-6.85-.26-9.52-.84-1.69-2.45-2.34-3.99-2.34-1.93,0-3.38.53-3.46,1.22l-.02.25c-.32,4.03-.19,8.36-.3,12.37,0,0-.02.45.32.45M228.37,140.68c-4.7-.56-13.88,0-14.17-.02-.5,0-.88-.82-.88-.82-2.39-5.16-4.38-10.58-6.91-15.63-.48-.94-1.61-.59-2.38-.51,0,0-.65.02-.65.8l.03,12.25c0,.87.56,1.58,1.25,2.07.94.63,2.91-.16,2.91,1.46,0,.33-.32.44-.5.44-4.17-.26-7.33-.15-11.59,0-.32-.07-.58-.24-.58-.65,0-.21.12-.38.21-.48.78-.9,2.87-.05,3.07-1.83l.1-4.2.08-24.31c0-1.29-.37-1.58-.8-1.74-.84-.3-2.53-.01-2.53-.88,0-.42.21-.97.72-.91,6.6.78,11.3-.88,16.46.38,2.92.71,4.86,2.96,5.57,5.39.8,2.74.41,5.48-.8,7.64-1.75,2.32-4.2,3.29-6.71,3.96,1.01.29,2.14,1.04,2.54,2.17l5.81,13.18c.53,1.25,3.01.66,3.21-.41.2-1.07.11-11.71.11-17.53,0-1.08-.48-1.37-.95-1.59-.62-.26-1.85-.28-1.85-.82s1-.69,1.54-.92c1.87-.58,3.6-1.25,5.2-2.53.15-.12.39-.12.51.13.09.19.08.54.08.98l-.06,22.09c.15,1.34,1.3,1.33,2.24,1.58.3.08.77.09.91.42.3.68-.37.92-1.14.86M156.61,124.66c-1.94.59-6.2.13-6.56.13-.44,0-.32-.83-.32-.83.66-3.03.9-7.11,4.65-7.71,1.01-.12,1.86.03,2.53.77,1.3,1.45,1.67,3.74,1.27,5.7-.2.99-.78,1.63-1.57,1.94M177.18,138.27c0,1.22-2.88.44-2.51,2.1l-2.06.09c.06-1.59-2.8-.52-2.8-2.51l-.06-15.22c0-2.8,1.7-5.04,3.54-5.04,3.46,0,4.07,2.68,4.07,4.55l-.18,16.02h0ZM225.95,110.68c-.54.65-1.4.85-2.16.74-.69-.34-1.34-.93-1.56-1.69-.3-1.06-.31-2.42.33-3.29.43-.57,1.07-1.03,1.79-1.11.83.03,1.63.55,1.99,1.34.66,1.24.39,2.94-.4,4.01M244.38,118.3c-.15.38-7.17,22.66-7.17,22.66-.15.41-.4.5-.65.42,0,0-.23,0-.41-.38-.06-.13-.17-.47-.17-.47l-7.38-23.45c-.4-.64-2.13-.1-1.49-1.35.16-.32.43-.27.43-.27,2.78.43,5.51-.18,8.25.03.5.04.44.84.28.91-.84.39-2.64.34-2.59.93,0,.07.03.13.05.19,1.26,4.91,2.69,9.79,4.22,14.63.07.26.36.51.54.3.06-.07.13-.21.17-.29,1.59-4.36,2.72-8.96,4.08-13.42.18-.76-.15-1.41-.77-1.67-.7-.23-1.61-.12-2.18-.56-.08-.06-.16-.15-.17-.25-.08-.5.25-.98.68-.91,1.88.3,4.06.1,5.94.12h.3c.25.03.33.53.12.83-.32.46-.86.23-1.22.54,0,0-.34.19-.85,1.44M257.26,140.5c-2.33,1.14-5.44,1.16-7.79,0l-.16-.09c-3.23-1.94-4.81-5.44-5.45-8.95-.59-5.85.37-11.69,5.07-15.36,2.37-1.76,5.93-2.17,8.58-.8,2.21,1.38,3.6,3.95,4.02,6.58.25,1.58.77,4.73-1.13,4.73-1.57,0-10.74.11-11.13.11s-.43.34-.43.34c-.33,3.6.06,7.56,2.54,10.22,1.39,1.57,3.77,1.51,5.64,1.04,1.78-.42,2.8-2.36,3.64-3.9.03-.05.08-.17.11-.22.2-.31.93-.14.98.26,0,.07-.02.18-.02.25-.25,2.45-2.27,4.56-4.26,5.69l-.2.09h0ZM255.74,124.66c.79-.31,1.37-.95,1.57-1.94.4-1.95.03-4.25-1.27-5.7-.67-.74-1.52-.9-2.53-.77-3.75.6-3.99,4.68-4.65,7.71,0,0-.12.83.32.83.36,0,4.62.45,6.57-.13M273.76,140.37s-.04.3-.48.3l-11.53-.07c-.33,0-.36-.3-.36-.3,0,0-.08-.39.39-.63.97-.41,2.82-.48,2.88-1.55v-.19c.17-5.71.29-11.63.05-17.27,0-.17.03-.34-.02-.5-.25-.79-1.41-.65-2.42-.99-.11-.05-.29-.12-.37-.2-.18-.18-.24-.58.07-.75.03-.02.18-.11.21-.12,2.14-.87,4.19-1.75,5.98-3.55.02-.02.13-.18.32-.18s.25.19.26.22c.31,1.56.12,3.38.2,5.08.02-.12.25-.46.25-.46,0,0,3.59-5.46,6.97-4.26,1.33.47,2.11,1.94,2.12,3.34.01,1.47-.58,3.23-1.88,3.65-.79.25-1.9.23-2.5-.81-.56-.97-.03-2.86-1.61-2.86-.42,0-.74.39-.89.54-1.15,1.15-1.46,3.1-1.74,4.74-.24,4.47,0,13.56,0,13.56,0,0,.02.55.04.69.16,1.21,1.19,1.44,1.19,1.44.78.34,2.98,0,2.87,1.13M192.73,140.4c-2.56.14-5.41.16-7.87.07.28-1.52-2.91-.78-2.91-2.36,0-.76-.23-17.94-.23-17.94,0-1.98-1.49-5.23-5.88-5.23-1.47.06-4.93.64-5.89,3.51l-.03-3.52c0-.41-.69-.6-.98-.29-1.64,1.74-3.9,2.38-5.88,3.54-.09.05-.22.13-.22.28,0,1.29,2.43.39,2.43,1.62l-.03,17.92c-.27,1.74-3.03.44-2.76,2.37l-4.04.04c1.99-1.12,4.01-3.23,4.26-5.69,0-.07.03-.18.02-.25-.04-.4-.77-.57-.98-.26-.03.05-.08.17-.11.22-.84,1.54-1.87,3.48-3.65,3.9-1.87.47-4.25.53-5.64-1.04-2.48-2.66-2.87-6.63-2.54-10.22,0,0,.03-.34.43-.34s9.57-.11,11.13-.11c1.9,0,1.39-3.15,1.13-4.73-.43-2.63-1.81-5.2-4.02-6.58-2.65-1.37-6.22-.96-8.58.8-4.7,3.67-5.66,9.51-5.07,15.36.64,3.51,2.22,7.01,5.45,8.95l-10.39.09c1.76-1.15,3.71-3.06,4.18-5.41.03-.24.08-.55.03-.72-.14-.4-.57-.53-.87-.18-.16.19-.28.43-.42.66-.81,1.36-1.55,2.95-3.12,3.38-1.76.62-4.11.57-5.63-.59-2.69-2.74-3.23-6.66-2.94-10.48,0,0,0-.38.43-.38.32,0,10.14-.18,11.21-.18,1.44,0,1.41-2.61,1.32-3.75-.24-2.87-1.35-5.55-3.78-7.3-1.96-1.27-4.96-1.39-7.11-.47-5.18,2.13-7.04,7.93-7.25,13.3.15,4.65,1.56,9.4,5.66,12.01l-8.51.08c.11-1.12-2.09-.79-2.87-1.14,0,0-1.04-.23-1.19-1.44-.02-.14-.04-.69-.04-.69,0,0-.25-9.09,0-13.56.28-1.64.6-3.58,1.74-4.74.14-.15.47-.54.89-.54,1.58,0,1.05,1.89,1.61,2.86.6,1.04,1.71,1.06,2.5.81,1.31-.41,1.89-2.17,1.88-3.64-.01-1.4-.78-2.87-2.12-3.35-3.38-1.2-6.97,4.26-6.97,4.26,0,0-.23.34-.25.46-.08-1.7.11-3.52-.2-5.08,0-.03-.08-.22-.26-.22s-.3.17-.32.19c-1.79,1.8-3.84,2.68-5.98,3.55-.03.01-.18.1-.21.12-.31.18-.25.58-.07.75.08.08.26.15.37.2,1.01.34,2.16.2,2.42.99.05.16.01.33.02.5.23,5.64.11,11.56-.05,17.27v.18c-.06,1.07-1.92,1.14-2.88,1.55-.47.24-.39.64-.39.64-1.91.02-3.9.11-5.81-.03,1.55-.73,4.16-1.73,4.16-4.45l.16-9.75c0-1.6,2.63-.57,2.33-2.27,0,0-.14-.38-.52-.38-.75-.02-6.61-.13-9.74.14-.11.01-.26.02-.32.03-.34.09-.37.87-.18,1.01.05.04.11.07.15.1,1.03.66,3.08.09,3.08,1.29l-.02,11.3c-.14.98-.89,1.78-1.79,2.1-2.02.58-3.97-.04-5.39-1.5-3.93-4.16-4.03-12.43-4.03-15.92s.21-12.39,5.68-15.21c1.26-.65,3.57-.68,4.77.49,2.12,2,2.64,4.7,3.97,7.03.11.19.12.27.27.44.37.42,1.13-.12,1.09-.6l-.13-7.37c0-.82-3.43-2.1-6.08-2.1-5.43,0-9.18,2.05-12.07,6.35-3.92,5.59-4.1,14.14-1.92,20.62,1.22,3.51,4.07,7.18,7.43,8.74l-60.08.02,111.01-93.42c4.01-3.17,10.5-3.8,14.89-1.04,6.5,5.31,12.97,10.7,19.26,16.46,4.22,4.61,7.7,10.63,5.52,17.26-1.88,8.34-10.13,14.2-8.21,23.93.66,5.1,5.19,8.12,8.51,11.71,5.25,6.91,7.13,15.74,6.02,25.01M302.84,140.38c-3.96-11.46-13.69-23.24-24.81-27.9-4.49-2.15-9.2-3.73-14.08-4.79l-19.94-3c-10.16-1.99-20.38-3.71-29.76-7.59-4.78-2.37-9.51-6.98-9.05-13,1.3-4.59.67-10.06-2.78-13.51-2.62-2.89-5.77-4.45-8.78-6.27l-15.84-8.1c-2.61-1.49-5.22-3.05-7.76-4.73l17.2-14.15c4.23-2.87,10.59-2.33,14.55.78l94.92,80,26.77,22.31-20.63-.06h-.01Z"/>
</svg>